<mxfile host="app.diagrams.net" modified="2021-01-23T11:42:13.538Z" agent="5.0 (Macintosh; Intel Mac OS X 10_15_7) AppleWebKit/537.36 (KHTML, like Gecko) Chrome/87.0.4280.141 Safari/537.36" etag="GIWm7ib_bM3rke3wnY4M" version="14.2.7" type="github">
  <diagram id="yiPsMUvP7zbMA0YJpADA" name="Page-1">
    <mxGraphModel dx="1186" dy="764" grid="1" gridSize="10" guides="1" tooltips="1" connect="1" arrows="1" fold="1" page="1" pageScale="1" pageWidth="850" pageHeight="1100" math="0" shadow="0">
      <root>
        <mxCell id="0" />
        <mxCell id="1" parent="0" />
        <mxCell id="kEJOGywwCOTzoZ82FWmy-1" value="App" style="swimlane;fontStyle=0;childLayout=stackLayout;horizontal=1;startSize=26;fillColor=none;horizontalStack=0;resizeParent=1;resizeParentMax=0;resizeLast=0;collapsible=1;marginBottom=0;" parent="1" vertex="1">
          <mxGeometry x="330" y="240" width="140" height="160" as="geometry" />
        </mxCell>
        <mxCell id="kEJOGywwCOTzoZ82FWmy-2" value="state:{&#xa;    time,&#xa;    Score[2]&#xa;}&#xa;handleScoreGameField()&#xa;&#xa;handleScorePanel()" style="text;strokeColor=none;fillColor=none;align=left;verticalAlign=top;spacingLeft=4;spacingRight=4;overflow=hidden;rotatable=0;points=[[0,0.5],[1,0.5]];portConstraint=eastwest;" parent="kEJOGywwCOTzoZ82FWmy-1" vertex="1">
          <mxGeometry y="26" width="140" height="134" as="geometry" />
        </mxCell>
        <mxCell id="kEJOGywwCOTzoZ82FWmy-5" value="ScoreBoard" style="swimlane;fontStyle=0;childLayout=stackLayout;horizontal=1;startSize=26;fillColor=none;horizontalStack=0;resizeParent=1;resizeParentMax=0;resizeLast=0;collapsible=1;marginBottom=0;" parent="1" vertex="1">
          <mxGeometry x="460" y="540" width="140" height="46" as="geometry" />
        </mxCell>
        <mxCell id="Sdubi5bN4TDRwVbgHYI4-1" value="get the score and display it" style="text;html=1;align=center;verticalAlign=middle;resizable=0;points=[];autosize=1;" parent="kEJOGywwCOTzoZ82FWmy-5" vertex="1">
          <mxGeometry y="26" width="140" height="20" as="geometry" />
        </mxCell>
        <mxCell id="kEJOGywwCOTzoZ82FWmy-9" value="Timer" style="swimlane;fontStyle=0;childLayout=stackLayout;horizontal=1;startSize=26;fillColor=none;horizontalStack=0;resizeParent=1;resizeParentMax=0;resizeLast=0;collapsible=1;marginBottom=0;" parent="1" vertex="1">
          <mxGeometry x="660" y="540" width="140" height="46" as="geometry" />
        </mxCell>
        <mxCell id="Sdubi5bN4TDRwVbgHYI4-2" value="get the time and display it" style="text;html=1;align=center;verticalAlign=middle;resizable=0;points=[];autosize=1;" parent="kEJOGywwCOTzoZ82FWmy-9" vertex="1">
          <mxGeometry y="26" width="140" height="20" as="geometry" />
        </mxCell>
        <mxCell id="kEJOGywwCOTzoZ82FWmy-13" value="GameField" style="swimlane;fontStyle=0;childLayout=stackLayout;horizontal=1;startSize=26;fillColor=none;horizontalStack=0;resizeParent=1;resizeParentMax=0;resizeLast=0;collapsible=1;marginBottom=0;" parent="1" vertex="1">
          <mxGeometry x="260" y="540" width="140" height="46" as="geometry" />
        </mxCell>
        <mxCell id="kEJOGywwCOTzoZ82FWmy-29" value="handle the score" style="text;html=1;align=center;verticalAlign=middle;resizable=0;points=[];autosize=1;" parent="kEJOGywwCOTzoZ82FWmy-13" vertex="1">
          <mxGeometry y="26" width="140" height="20" as="geometry" />
        </mxCell>
        <mxCell id="kEJOGywwCOTzoZ82FWmy-17" value="Panel" style="swimlane;fontStyle=0;childLayout=stackLayout;horizontal=1;startSize=26;fillColor=none;horizontalStack=0;resizeParent=1;resizeParentMax=0;resizeLast=0;collapsible=1;marginBottom=0;" parent="1" vertex="1">
          <mxGeometry x="70" y="540" width="140" height="46" as="geometry" />
        </mxCell>
        <mxCell id="kEJOGywwCOTzoZ82FWmy-27" value="handle the score&lt;br&gt;" style="text;html=1;align=center;verticalAlign=middle;resizable=0;points=[];autosize=1;" parent="kEJOGywwCOTzoZ82FWmy-17" vertex="1">
          <mxGeometry y="26" width="140" height="20" as="geometry" />
        </mxCell>
        <mxCell id="kEJOGywwCOTzoZ82FWmy-21" value="" style="endArrow=classic;html=1;" parent="1" source="kEJOGywwCOTzoZ82FWmy-17" target="kEJOGywwCOTzoZ82FWmy-1" edge="1">
          <mxGeometry width="50" height="50" relative="1" as="geometry">
            <mxPoint x="490" y="420" as="sourcePoint" />
            <mxPoint x="540" y="370" as="targetPoint" />
          </mxGeometry>
        </mxCell>
        <mxCell id="kEJOGywwCOTzoZ82FWmy-23" value="" style="endArrow=classic;html=1;" parent="1" source="kEJOGywwCOTzoZ82FWmy-13" target="kEJOGywwCOTzoZ82FWmy-1" edge="1">
          <mxGeometry width="50" height="50" relative="1" as="geometry">
            <mxPoint x="490" y="420" as="sourcePoint" />
            <mxPoint x="540" y="370" as="targetPoint" />
          </mxGeometry>
        </mxCell>
        <mxCell id="kEJOGywwCOTzoZ82FWmy-24" value="" style="endArrow=classic;html=1;" parent="1" source="kEJOGywwCOTzoZ82FWmy-5" target="kEJOGywwCOTzoZ82FWmy-1" edge="1">
          <mxGeometry width="50" height="50" relative="1" as="geometry">
            <mxPoint x="377.9693486590038" y="530" as="sourcePoint" />
            <mxPoint x="399.1187739463601" y="392" as="targetPoint" />
          </mxGeometry>
        </mxCell>
        <mxCell id="kEJOGywwCOTzoZ82FWmy-25" value="" style="endArrow=classic;html=1;" parent="1" source="kEJOGywwCOTzoZ82FWmy-9" target="kEJOGywwCOTzoZ82FWmy-1" edge="1">
          <mxGeometry width="50" height="50" relative="1" as="geometry">
            <mxPoint x="387.9693486590038" y="540" as="sourcePoint" />
            <mxPoint x="409.1187739463601" y="402" as="targetPoint" />
          </mxGeometry>
        </mxCell>
      </root>
    </mxGraphModel>
  </diagram>
</mxfile>
